<svg xmlns="http://www.w3.org/2000/svg" xmlns:xlink="http://www.w3.org/1999/xlink" width="1080" zoomAndPan="magnify" viewBox="0 0 810 809.999993" height="1080" preserveAspectRatio="xMidYMid meet" version="1.0"><defs><g/><clipPath id="eadaecdd72"><path d="M 30 30 L 780 30 L 780 780 L 30 780 Z M 30 30 " clip-rule="nonzero"/></clipPath><clipPath id="f331dafe3a"><path d="M 405 30 C 197.894531 30 30 197.894531 30 405 C 30 612.105469 197.894531 780 405 780 C 612.105469 780 780 612.105469 780 405 C 780 197.894531 612.105469 30 405 30 Z M 405 30 " clip-rule="nonzero"/></clipPath><linearGradient x1="-0.000000426667" gradientTransform="matrix(2.929687, 0, 0, 2.929687, 30.000003, 30.00002)" y1="128" x2="255.999989" gradientUnits="userSpaceOnUse" y2="128" id="91ce898026"><stop stop-opacity="1" stop-color="rgb(0%, 0%, 0%)" offset="0"/><stop stop-opacity="1" stop-color="rgb(0.175476%, 0.175476%, 0.175476%)" offset="0.0078125"/><stop stop-opacity="1" stop-color="rgb(0.526428%, 0.526428%, 0.526428%)" offset="0.015625"/><stop stop-opacity="1" stop-color="rgb(0.878906%, 0.878906%, 0.878906%)" offset="0.0234375"/><stop stop-opacity="1" stop-color="rgb(1.231384%, 1.231384%, 1.231384%)" offset="0.03125"/><stop stop-opacity="1" stop-color="rgb(1.583862%, 1.583862%, 1.583862%)" offset="0.0390625"/><stop stop-opacity="1" stop-color="rgb(1.93634%, 1.93634%, 1.93634%)" offset="0.046875"/><stop stop-opacity="1" stop-color="rgb(2.288818%, 2.288818%, 2.288818%)" offset="0.0546875"/><stop stop-opacity="1" stop-color="rgb(2.641296%, 2.641296%, 2.641296%)" offset="0.0625"/><stop stop-opacity="1" stop-color="rgb(2.993774%, 2.993774%, 2.993774%)" offset="0.0703125"/><stop stop-opacity="1" stop-color="rgb(3.346252%, 3.346252%, 3.346252%)" offset="0.078125"/><stop stop-opacity="1" stop-color="rgb(3.69873%, 3.69873%, 3.69873%)" offset="0.0859375"/><stop stop-opacity="1" stop-color="rgb(4.051208%, 4.051208%, 4.051208%)" offset="0.09375"/><stop stop-opacity="1" stop-color="rgb(4.402161%, 4.402161%, 4.402161%)" offset="0.101562"/><stop stop-opacity="1" stop-color="rgb(4.754639%, 4.754639%, 4.754639%)" offset="0.109375"/><stop stop-opacity="1" stop-color="rgb(5.107117%, 5.107117%, 5.107117%)" offset="0.117187"/><stop stop-opacity="1" stop-color="rgb(5.459595%, 5.459595%, 5.459595%)" offset="0.125"/><stop stop-opacity="1" stop-color="rgb(5.812073%, 5.812073%, 5.812073%)" offset="0.132812"/><stop stop-opacity="1" stop-color="rgb(6.164551%, 6.164551%, 6.164551%)" offset="0.140625"/><stop stop-opacity="1" stop-color="rgb(6.517029%, 6.517029%, 6.517029%)" offset="0.148438"/><stop stop-opacity="1" stop-color="rgb(6.869507%, 6.869507%, 6.869507%)" offset="0.15625"/><stop stop-opacity="1" stop-color="rgb(7.221985%, 7.221985%, 7.221985%)" offset="0.164062"/><stop stop-opacity="1" stop-color="rgb(7.574463%, 7.574463%, 7.574463%)" offset="0.171875"/><stop stop-opacity="1" stop-color="rgb(7.926941%, 7.926941%, 7.926941%)" offset="0.179688"/><stop stop-opacity="1" stop-color="rgb(8.277893%, 8.277893%, 8.277893%)" offset="0.1875"/><stop stop-opacity="1" stop-color="rgb(8.630371%, 8.630371%, 8.630371%)" offset="0.195312"/><stop stop-opacity="1" stop-color="rgb(8.982849%, 8.982849%, 8.982849%)" offset="0.203125"/><stop stop-opacity="1" stop-color="rgb(9.335327%, 9.335327%, 9.335327%)" offset="0.210938"/><stop stop-opacity="1" stop-color="rgb(9.687805%, 9.687805%, 9.687805%)" offset="0.21875"/><stop stop-opacity="1" stop-color="rgb(10.040283%, 10.040283%, 10.040283%)" offset="0.226562"/><stop stop-opacity="1" stop-color="rgb(10.392761%, 10.392761%, 10.392761%)" offset="0.234375"/><stop stop-opacity="1" stop-color="rgb(10.745239%, 10.745239%, 10.745239%)" offset="0.242188"/><stop stop-opacity="1" stop-color="rgb(11.097717%, 11.097717%, 11.097717%)" offset="0.25"/><stop stop-opacity="1" stop-color="rgb(11.450195%, 11.450195%, 11.450195%)" offset="0.257812"/><stop stop-opacity="1" stop-color="rgb(11.802673%, 11.802673%, 11.802673%)" offset="0.265625"/><stop stop-opacity="1" stop-color="rgb(12.155151%, 12.155151%, 12.155151%)" offset="0.273437"/><stop stop-opacity="1" stop-color="rgb(12.506104%, 12.506104%, 12.506104%)" offset="0.28125"/><stop stop-opacity="1" stop-color="rgb(12.858582%, 12.858582%, 12.858582%)" offset="0.289062"/><stop stop-opacity="1" stop-color="rgb(13.21106%, 13.21106%, 13.21106%)" offset="0.296875"/><stop stop-opacity="1" stop-color="rgb(13.563538%, 13.563538%, 13.563538%)" offset="0.304687"/><stop stop-opacity="1" stop-color="rgb(13.916016%, 13.916016%, 13.916016%)" offset="0.3125"/><stop stop-opacity="1" stop-color="rgb(14.268494%, 14.268494%, 14.268494%)" offset="0.320312"/><stop stop-opacity="1" stop-color="rgb(14.620972%, 14.620972%, 14.620972%)" offset="0.328125"/><stop stop-opacity="1" stop-color="rgb(14.97345%, 14.97345%, 14.97345%)" offset="0.335937"/><stop stop-opacity="1" stop-color="rgb(15.325928%, 15.325928%, 15.325928%)" offset="0.34375"/><stop stop-opacity="1" stop-color="rgb(15.678406%, 15.678406%, 15.678406%)" offset="0.351562"/><stop stop-opacity="1" stop-color="rgb(16.030884%, 16.030884%, 16.030884%)" offset="0.359375"/><stop stop-opacity="1" stop-color="rgb(16.381836%, 16.381836%, 16.381836%)" offset="0.367187"/><stop stop-opacity="1" stop-color="rgb(16.734314%, 16.734314%, 16.734314%)" offset="0.375"/><stop stop-opacity="1" stop-color="rgb(17.086792%, 17.086792%, 17.086792%)" offset="0.382812"/><stop stop-opacity="1" stop-color="rgb(17.43927%, 17.43927%, 17.43927%)" offset="0.390625"/><stop stop-opacity="1" stop-color="rgb(17.791748%, 17.791748%, 17.791748%)" offset="0.398437"/><stop stop-opacity="1" stop-color="rgb(18.144226%, 18.144226%, 18.144226%)" offset="0.40625"/><stop stop-opacity="1" stop-color="rgb(18.496704%, 18.496704%, 18.496704%)" offset="0.414062"/><stop stop-opacity="1" stop-color="rgb(18.849182%, 18.849182%, 18.849182%)" offset="0.421875"/><stop stop-opacity="1" stop-color="rgb(19.20166%, 19.20166%, 19.20166%)" offset="0.429687"/><stop stop-opacity="1" stop-color="rgb(19.554138%, 19.554138%, 19.554138%)" offset="0.4375"/><stop stop-opacity="1" stop-color="rgb(19.906616%, 19.906616%, 19.906616%)" offset="0.445312"/><stop stop-opacity="1" stop-color="rgb(20.257568%, 20.257568%, 20.257568%)" offset="0.453125"/><stop stop-opacity="1" stop-color="rgb(20.610046%, 20.610046%, 20.610046%)" offset="0.460937"/><stop stop-opacity="1" stop-color="rgb(20.962524%, 20.962524%, 20.962524%)" offset="0.46875"/><stop stop-opacity="1" stop-color="rgb(21.315002%, 21.315002%, 21.315002%)" offset="0.476562"/><stop stop-opacity="1" stop-color="rgb(21.66748%, 21.66748%, 21.66748%)" offset="0.484375"/><stop stop-opacity="1" stop-color="rgb(22.019958%, 22.019958%, 22.019958%)" offset="0.492187"/><stop stop-opacity="1" stop-color="rgb(22.372437%, 22.372437%, 22.372437%)" offset="0.5"/><stop stop-opacity="1" stop-color="rgb(22.724915%, 22.724915%, 22.724915%)" offset="0.507812"/><stop stop-opacity="1" stop-color="rgb(23.077393%, 23.077393%, 23.077393%)" offset="0.515625"/><stop stop-opacity="1" stop-color="rgb(23.429871%, 23.429871%, 23.429871%)" offset="0.523438"/><stop stop-opacity="1" stop-color="rgb(23.782349%, 23.782349%, 23.782349%)" offset="0.53125"/><stop stop-opacity="1" stop-color="rgb(24.134827%, 24.134827%, 24.134827%)" offset="0.539062"/><stop stop-opacity="1" stop-color="rgb(24.485779%, 24.485779%, 24.485779%)" offset="0.546875"/><stop stop-opacity="1" stop-color="rgb(24.838257%, 24.838257%, 24.838257%)" offset="0.554688"/><stop stop-opacity="1" stop-color="rgb(25.190735%, 25.190735%, 25.190735%)" offset="0.5625"/><stop stop-opacity="1" stop-color="rgb(25.543213%, 25.543213%, 25.543213%)" offset="0.570312"/><stop stop-opacity="1" stop-color="rgb(25.895691%, 25.895691%, 25.895691%)" offset="0.578125"/><stop stop-opacity="1" stop-color="rgb(26.248169%, 26.248169%, 26.248169%)" offset="0.585938"/><stop stop-opacity="1" stop-color="rgb(26.600647%, 26.600647%, 26.600647%)" offset="0.59375"/><stop stop-opacity="1" stop-color="rgb(26.953125%, 26.953125%, 26.953125%)" offset="0.601562"/><stop stop-opacity="1" stop-color="rgb(27.305603%, 27.305603%, 27.305603%)" offset="0.609375"/><stop stop-opacity="1" stop-color="rgb(27.658081%, 27.658081%, 27.658081%)" offset="0.617188"/><stop stop-opacity="1" stop-color="rgb(28.010559%, 28.010559%, 28.010559%)" offset="0.625"/><stop stop-opacity="1" stop-color="rgb(28.361511%, 28.361511%, 28.361511%)" offset="0.632812"/><stop stop-opacity="1" stop-color="rgb(28.713989%, 28.713989%, 28.713989%)" offset="0.640625"/><stop stop-opacity="1" stop-color="rgb(29.066467%, 29.066467%, 29.066467%)" offset="0.648438"/><stop stop-opacity="1" stop-color="rgb(29.418945%, 29.418945%, 29.418945%)" offset="0.65625"/><stop stop-opacity="1" stop-color="rgb(29.771423%, 29.771423%, 29.771423%)" offset="0.664062"/><stop stop-opacity="1" stop-color="rgb(30.123901%, 30.123901%, 30.123901%)" offset="0.671875"/><stop stop-opacity="1" stop-color="rgb(30.476379%, 30.476379%, 30.476379%)" offset="0.679688"/><stop stop-opacity="1" stop-color="rgb(30.828857%, 30.828857%, 30.828857%)" offset="0.6875"/><stop stop-opacity="1" stop-color="rgb(31.181335%, 31.181335%, 31.181335%)" offset="0.695312"/><stop stop-opacity="1" stop-color="rgb(31.533813%, 31.533813%, 31.533813%)" offset="0.703125"/><stop stop-opacity="1" stop-color="rgb(31.886292%, 31.886292%, 31.886292%)" offset="0.710938"/><stop stop-opacity="1" stop-color="rgb(32.237244%, 32.237244%, 32.237244%)" offset="0.71875"/><stop stop-opacity="1" stop-color="rgb(32.589722%, 32.589722%, 32.589722%)" offset="0.726562"/><stop stop-opacity="1" stop-color="rgb(32.9422%, 32.9422%, 32.9422%)" offset="0.734375"/><stop stop-opacity="1" stop-color="rgb(33.294678%, 33.294678%, 33.294678%)" offset="0.742188"/><stop stop-opacity="1" stop-color="rgb(33.647156%, 33.647156%, 33.647156%)" offset="0.75"/><stop stop-opacity="1" stop-color="rgb(33.999634%, 33.999634%, 33.999634%)" offset="0.757812"/><stop stop-opacity="1" stop-color="rgb(34.352112%, 34.352112%, 34.352112%)" offset="0.765625"/><stop stop-opacity="1" stop-color="rgb(34.70459%, 34.70459%, 34.70459%)" offset="0.773438"/><stop stop-opacity="1" stop-color="rgb(35.057068%, 35.057068%, 35.057068%)" offset="0.78125"/><stop stop-opacity="1" stop-color="rgb(35.409546%, 35.409546%, 35.409546%)" offset="0.789062"/><stop stop-opacity="1" stop-color="rgb(35.762024%, 35.762024%, 35.762024%)" offset="0.796875"/><stop stop-opacity="1" stop-color="rgb(36.114502%, 36.114502%, 36.114502%)" offset="0.804688"/><stop stop-opacity="1" stop-color="rgb(36.465454%, 36.465454%, 36.465454%)" offset="0.8125"/><stop stop-opacity="1" stop-color="rgb(36.817932%, 36.817932%, 36.817932%)" offset="0.820312"/><stop stop-opacity="1" stop-color="rgb(37.17041%, 37.17041%, 37.17041%)" offset="0.828125"/><stop stop-opacity="1" stop-color="rgb(37.522888%, 37.522888%, 37.522888%)" offset="0.835938"/><stop stop-opacity="1" stop-color="rgb(37.875366%, 37.875366%, 37.875366%)" offset="0.84375"/><stop stop-opacity="1" stop-color="rgb(38.227844%, 38.227844%, 38.227844%)" offset="0.851562"/><stop stop-opacity="1" stop-color="rgb(38.580322%, 38.580322%, 38.580322%)" offset="0.859375"/><stop stop-opacity="1" stop-color="rgb(38.9328%, 38.9328%, 38.9328%)" offset="0.867188"/><stop stop-opacity="1" stop-color="rgb(39.285278%, 39.285278%, 39.285278%)" offset="0.875"/><stop stop-opacity="1" stop-color="rgb(39.637756%, 39.637756%, 39.637756%)" offset="0.882812"/><stop stop-opacity="1" stop-color="rgb(39.990234%, 39.990234%, 39.990234%)" offset="0.890625"/><stop stop-opacity="1" stop-color="rgb(40.341187%, 40.341187%, 40.341187%)" offset="0.898438"/><stop stop-opacity="1" stop-color="rgb(40.693665%, 40.693665%, 40.693665%)" offset="0.90625"/><stop stop-opacity="1" stop-color="rgb(41.046143%, 41.046143%, 41.046143%)" offset="0.914062"/><stop stop-opacity="1" stop-color="rgb(41.398621%, 41.398621%, 41.398621%)" offset="0.921875"/><stop stop-opacity="1" stop-color="rgb(41.751099%, 41.751099%, 41.751099%)" offset="0.929688"/><stop stop-opacity="1" stop-color="rgb(42.103577%, 42.103577%, 42.103577%)" offset="0.9375"/><stop stop-opacity="1" stop-color="rgb(42.456055%, 42.456055%, 42.456055%)" offset="0.945312"/><stop stop-opacity="1" stop-color="rgb(42.808533%, 42.808533%, 42.808533%)" offset="0.953125"/><stop stop-opacity="1" stop-color="rgb(43.161011%, 43.161011%, 43.161011%)" offset="0.960938"/><stop stop-opacity="1" stop-color="rgb(43.513489%, 43.513489%, 43.513489%)" offset="0.96875"/><stop stop-opacity="1" stop-color="rgb(43.865967%, 43.865967%, 43.865967%)" offset="0.976562"/><stop stop-opacity="1" stop-color="rgb(44.216919%, 44.216919%, 44.216919%)" offset="0.984375"/><stop stop-opacity="1" stop-color="rgb(44.569397%, 44.569397%, 44.569397%)" offset="0.992188"/><stop stop-opacity="1" stop-color="rgb(44.921875%, 44.921875%, 44.921875%)" offset="1"/></linearGradient><clipPath id="21f09f4a2a"><path d="M 105 105 L 705 105 L 705 705 L 105 705 Z M 105 105 " clip-rule="nonzero"/></clipPath><clipPath id="b9513985e9"><path d="M 405 105 C 239.316406 105 105 239.316406 105 405 C 105 570.683594 239.316406 705 405 705 C 570.683594 705 705 570.683594 705 405 C 705 239.316406 570.683594 105 405 105 Z M 405 105 " clip-rule="nonzero"/></clipPath><clipPath id="06974d5c1f"><path d="M 116.25 116.25 L 693.75 116.25 L 693.75 693.75 L 116.25 693.75 Z M 116.25 116.25 " clip-rule="nonzero"/></clipPath><clipPath id="4085a2bb89"><path d="M 405 116.25 C 245.527344 116.25 116.25 245.527344 116.25 405 C 116.25 564.472656 245.527344 693.75 405 693.75 C 564.472656 693.75 693.75 564.472656 693.75 405 C 693.75 245.527344 564.472656 116.25 405 116.25 Z M 405 116.25 " clip-rule="nonzero"/></clipPath><clipPath id="23225f79f8"><path d="M 393 393 L 417 393 L 417 417 L 393 417 Z M 393 393 " clip-rule="nonzero"/></clipPath><clipPath id="fd3571539b"><path d="M 393.859375 393.640625 L 416.359375 393.859375 L 416.140625 416.359375 L 393.640625 416.140625 Z M 393.859375 393.640625 " clip-rule="nonzero"/></clipPath><clipPath id="db0f6bd469"><path d="M 393.859375 393.640625 L 416.40625 393.859375 L 416.191406 416.410156 L 393.640625 416.191406 Z M 393.859375 393.640625 " clip-rule="nonzero"/></clipPath><clipPath id="75337358b5"><path d="M 405.109375 393.75 C 398.894531 393.691406 393.808594 398.679688 393.75 404.890625 C 393.691406 411.105469 398.679688 416.191406 404.890625 416.25 C 411.105469 416.308594 416.191406 411.320312 416.25 405.109375 C 416.308594 398.894531 411.320312 393.808594 405.109375 393.75 Z M 405.109375 393.75 " clip-rule="nonzero"/></clipPath></defs><g clip-path="url(#eadaecdd72)"><g clip-path="url(#f331dafe3a)"><path fill="url(#91ce898026)" d="M 30 30 L 30 780 L 780 780 L 780 30 Z M 30 30 " fill-rule="nonzero"/></g></g><g clip-path="url(#21f09f4a2a)"><g clip-path="url(#b9513985e9)"><path stroke-linecap="butt" transform="matrix(0.75, 0, 0, 0.75, 104.999998, 105.000015)" fill="none" stroke-linejoin="miter" d="M 400.000023 -0.0000196235 C 179.088553 -0.0000196235 0.00000237654 179.088531 0.00000237654 400.000001 C 0.00000237654 620.91147 179.088553 800.000021 400.000023 800.000021 C 620.911492 800.000021 800.000043 620.91147 800.000043 400.000001 C 800.000043 179.088531 620.911492 -0.0000196235 400.000023 -0.0000196235 Z M 400.000023 -0.0000196235 " stroke="#d9d9d9" stroke-width="2" stroke-opacity="1" stroke-miterlimit="4"/></g></g><g clip-path="url(#06974d5c1f)"><g clip-path="url(#4085a2bb89)"><path stroke-linecap="butt" transform="matrix(0.75, 0, 0, 0.75, 116.249998, 116.250014)" fill="none" stroke-linejoin="miter" d="M 385.000047 -0.0000188688 C 172.369815 -0.0000188688 0.00000313117 172.369793 0.00000313117 385.000025 C 0.00000313117 597.630258 172.369815 770.000069 385.000047 770.000069 C 597.63028 770.000069 770.000091 597.630258 770.000091 385.000025 C 770.000091 172.369793 597.63028 -0.0000188688 385.000047 -0.0000188688 Z M 385.000047 -0.0000188688 " stroke="#d9d9d9" stroke-width="2" stroke-opacity="1" stroke-miterlimit="4"/></g></g><path stroke-linecap="butt" transform="matrix(0.74217, -0.108092, 0.108092, 0.74217, 104.891907, 449.136981)" fill="none" stroke-linejoin="miter" d="M 0.0000485777 0.999677 L 389.061976 0.999319 " stroke="#d9d9d9" stroke-width="2" stroke-opacity="1" stroke-miterlimit="4"/><path stroke-linecap="butt" transform="matrix(0.741045, 0.115552, -0.115552, 0.741045, 105.115493, 359.126604)" fill="none" stroke-linejoin="miter" d="M -0.0000177816 0.999381 L 389.652899 1.002411 " stroke="#d9d9d9" stroke-width="2" stroke-opacity="1" stroke-miterlimit="4"/><g clip-path="url(#23225f79f8)"><g clip-path="url(#fd3571539b)"><g clip-path="url(#db0f6bd469)"><g clip-path="url(#75337358b5)"><path stroke-linecap="butt" transform="matrix(0.749965, 0.00719786, -0.00719786, 0.749965, 393.858471, 393.642569)" fill="none" stroke-linejoin="miter" d="M 15.00189 -0.00073403 C 6.715063 0.000670925 -0.00204383 6.716487 -0.00068886 14.998106 C 0.000716095 23.284934 6.716533 30.002041 14.998152 30.000686 C 23.284979 29.999281 30.002086 23.283464 30.000731 15.001845 C 29.999326 6.715018 23.28351 -0.002089 15.00189 -0.00073403 Z M 15.00189 -0.00073403 " stroke="#d9d9d9" stroke-width="2" stroke-opacity="1" stroke-miterlimit="4"/></g></g></g></g><path stroke-linecap="butt" transform="matrix(0.66703, 0.342885, -0.342885, 0.66703, 135.166885, 265.451227)" fill="none" stroke-linejoin="miter" d="M -0.0003929 0.998598 L 390.038479 0.998151 " stroke="#d9d9d9" stroke-width="2" stroke-opacity="1" stroke-miterlimit="4"/><path stroke-linecap="butt" transform="matrix(0.528307, 0.532346, -0.532346, 0.528307, 191.063387, 188.363667)" fill="none" stroke-linejoin="miter" d="M -0.00108001 0.998535 L 390.95448 1.001174 " stroke="#d9d9d9" stroke-width="2" stroke-opacity="1" stroke-miterlimit="4"/><path stroke-linecap="butt" transform="matrix(0.346268, 0.665281, -0.665281, 0.346268, 265.155401, 134.700452)" fill="none" stroke-linejoin="miter" d="M -0.000948623 1.00227 L 390.777981 0.998869 " stroke="#d9d9d9" stroke-width="2" stroke-opacity="1" stroke-miterlimit="4"/><path stroke-linecap="butt" transform="matrix(0.121961, 0.740017, -0.740017, 0.121961, 356.296627, 104.879108)" fill="none" stroke-linejoin="miter" d="M -0.00182251 1.002297 L 390.392472 1.001736 " stroke="#d9d9d9" stroke-width="2" stroke-opacity="1" stroke-miterlimit="4"/><path stroke-linecap="butt" transform="matrix(-0.109438, 0.741973, -0.741973, -0.109438, 449.985101, 105.114389)" fill="none" stroke-linejoin="miter" d="M -0.00119501 1.001444 L 389.326995 0.998908 " stroke="#d9d9d9" stroke-width="2" stroke-opacity="1" stroke-miterlimit="4"/><g fill="#ffffff" fill-opacity="1"><g transform="translate(389.394858, 79.949987)"><g><path d="M 25.578125 -7.3125 L 26.328125 -10.875 L 21.75 -10.875 L 21.75 -29.40625 L 17.8125 -29.40625 L 1.34375 -10.875 L 2.1875 -7.3125 L 17.46875 -7.3125 L 17.46875 -3.359375 L 16.59375 0 L 22.515625 0 L 21.75 -3.359375 L 21.75 -7.3125 Z M 5.875 -10.875 L 17.46875 -24.234375 L 17.46875 -10.875 Z M 5.875 -10.875 "/></g></g></g><g fill="#ffffff" fill-opacity="1"><g transform="translate(276.984482, 95.700015)"><g><path d="M 13.234375 -3.734375 L 13.234375 -29.40625 L 3.734375 -29.40625 L 2.765625 -25.53125 L 8.859375 -25.53125 L 8.859375 -3.734375 L 2.1875 -3.734375 L 2.1875 0 L 19.53125 0 L 19.53125 -3.734375 Z M 13.234375 -3.734375 "/></g></g></g><g fill="#ffffff" fill-opacity="1"><g transform="translate(297.522483, 95.700015)"><g><path d="M 3.53125 0 L 15.796875 0 C 17.21875 0 18.484375 -0.625 19.53125 -1.546875 L 21.875 -3.65625 C 22.9375 -4.578125 23.4375 -5.84375 23.4375 -7.1875 L 23.4375 -9.953125 C 23.4375 -11.375 22.96875 -12.515625 21.875 -13.359375 L 19.359375 -15.40625 L 20.875 -16.796875 C 21.796875 -17.6875 22.46875 -18.6875 22.46875 -19.984375 L 22.46875 -22.421875 C 22.46875 -23.515625 22.015625 -25.15625 21.125 -25.90625 L 18.734375 -28.0625 C 17.8125 -28.890625 16.765625 -29.40625 15.5 -29.40625 L 4.234375 -29.40625 L 3.3125 -24.859375 L 6.796875 -25.703125 L 13.9375 -25.703125 C 14.65625 -25.703125 15.203125 -25.5 15.796875 -25.03125 L 17.21875 -23.890625 C 17.84375 -23.359375 18.109375 -22.640625 18.109375 -21.875 L 18.109375 -20.75 C 18.109375 -19.984375 17.9375 -19.3125 17.265625 -18.734375 L 15.921875 -17.515625 C 15.328125 -16.96875 14.78125 -16.84375 14.109375 -16.84375 L 5.296875 -16.84375 L 5.296875 -13.3125 L 14.828125 -13.3125 C 15.453125 -13.3125 16.09375 -13.140625 16.625 -12.6875 L 17.765625 -11.71875 C 18.5625 -11.125 19.03125 -10.328125 19.03125 -9.359375 L 19.03125 -7.859375 C 19.03125 -6.890625 18.4375 -6.09375 17.6875 -5.5 L 16.421875 -4.578125 C 16 -4.234375 15.375 -3.984375 14.703125 -3.984375 L 6.046875 -3.984375 L 2.640625 -4.828125 Z M 3.53125 0 "/></g></g></g><g fill="#ffffff" fill-opacity="1"><g transform="translate(181.795526, 140.550013)"><g><path d="M 13.234375 -3.734375 L 13.234375 -29.40625 L 3.734375 -29.40625 L 2.765625 -25.53125 L 8.859375 -25.53125 L 8.859375 -3.734375 L 2.1875 -3.734375 L 2.1875 0 L 19.53125 0 L 19.53125 -3.734375 Z M 13.234375 -3.734375 "/></g></g></g><g fill="#ffffff" fill-opacity="1"><g transform="translate(202.333527, 140.550013)"><g><path d="M 11.671875 0 L 18.3125 0 C 19.734375 0 21.046875 -0.546875 22.046875 -1.546875 L 24.953125 -4.453125 C 25.953125 -5.453125 26.5 -6.765625 26.5 -8.1875 L 26.5 -21.203125 C 26.5 -22.640625 25.953125 -23.9375 24.953125 -24.953125 L 22.046875 -27.84375 C 21.046875 -28.859375 19.734375 -29.40625 18.3125 -29.40625 L 11.671875 -29.40625 C 10.25 -29.40625 8.953125 -28.859375 7.9375 -27.84375 L 5.046875 -24.953125 C 4.03125 -23.9375 3.484375 -22.640625 3.484375 -21.203125 L 3.484375 -8.1875 C 3.484375 -6.765625 4.03125 -5.453125 5.046875 -4.453125 L 7.9375 -1.546875 C 8.953125 -0.546875 10.25 0 11.671875 0 Z M 12.515625 -3.78125 C 11.890625 -3.78125 11.421875 -3.953125 10.921875 -4.5 L 8.53125 -6.890625 C 8.109375 -7.3125 7.859375 -7.9375 7.859375 -8.609375 L 7.859375 -20.796875 C 7.859375 -21.46875 8.109375 -22.09375 8.53125 -22.515625 L 10.921875 -24.90625 C 11.421875 -25.453125 11.890625 -25.625 12.515625 -25.625 L 17.46875 -25.625 C 18.109375 -25.625 18.5625 -25.453125 19.109375 -24.90625 L 21.5 -22.515625 C 21.875 -22.09375 22.140625 -21.46875 22.140625 -20.796875 L 22.140625 -8.609375 C 22.140625 -7.9375 21.875 -7.3125 21.5 -6.890625 L 19.109375 -4.5 C 18.5625 -3.953125 18.109375 -3.78125 17.46875 -3.78125 Z M 12.515625 -3.78125 "/></g></g></g><g fill="#ffffff" fill-opacity="1"><g transform="translate(112.499998, 215.138316)"><g><path d="M 13.234375 -3.734375 L 13.234375 -29.40625 L 3.734375 -29.40625 L 2.765625 -25.53125 L 8.859375 -25.53125 L 8.859375 -3.734375 L 2.1875 -3.734375 L 2.1875 0 L 19.53125 0 L 19.53125 -3.734375 Z M 13.234375 -3.734375 "/></g></g></g><g fill="#ffffff" fill-opacity="1"><g transform="translate(133.037999, 215.138316)"><g><path d="M 13.234375 -3.734375 L 13.234375 -29.40625 L 3.734375 -29.40625 L 2.765625 -25.53125 L 8.859375 -25.53125 L 8.859375 -3.734375 L 2.1875 -3.734375 L 2.1875 0 L 19.53125 0 L 19.53125 -3.734375 Z M 13.234375 -3.734375 "/></g></g></g><g fill="#ffffff" fill-opacity="1"><g transform="translate(68.52539, 306.916908)"><g><path d="M 9.234375 0 L 13.609375 0 L 13.609375 -6.296875 L 23.1875 -27.34375 L 22.640625 -29.40625 L 2.8125 -29.40625 L 2.1875 -24.703125 L 5.546875 -25.53125 L 18.1875 -25.53125 L 9.234375 -6.46875 Z M 9.234375 0 "/></g></g></g><g fill="#ffffff" fill-opacity="1"><g transform="translate(39.416017, 420.64204)"><g><path d="M 13.234375 -3.734375 L 13.234375 -29.40625 L 3.734375 -29.40625 L 2.765625 -25.53125 L 8.859375 -25.53125 L 8.859375 -3.734375 L 2.1875 -3.734375 L 2.1875 0 L 19.53125 0 L 19.53125 -3.734375 Z M 13.234375 -3.734375 "/></g></g></g><g fill="#ffffff" fill-opacity="1"><g transform="translate(59.954018, 420.64204)"><g><path d="M 10.296875 0 L 17.9375 0 C 19.359375 0 20.625 -0.625 21.671875 -1.546875 L 24.03125 -3.65625 C 25.078125 -4.578125 25.578125 -5.84375 25.578125 -7.1875 L 25.578125 -9.953125 C 25.578125 -11.375 25.15625 -12.515625 24.03125 -13.359375 L 21.5 -15.40625 L 23.0625 -16.796875 C 23.9375 -17.6875 24.65625 -18.6875 24.65625 -19.984375 L 24.65625 -22.421875 C 24.65625 -23.515625 24.15625 -25.15625 23.3125 -25.90625 L 20.875 -28.0625 C 19.953125 -28.890625 18.90625 -29.40625 17.640625 -29.40625 L 10.578125 -29.40625 C 9.328125 -29.40625 8.28125 -28.890625 7.34375 -28.0625 L 4.953125 -25.90625 C 4.078125 -25.15625 3.609375 -23.515625 3.609375 -22.421875 L 3.609375 -19.984375 C 3.609375 -18.6875 4.28125 -17.6875 5.203125 -16.796875 L 6.71875 -15.40625 L 4.203125 -13.359375 C 3.109375 -12.515625 2.640625 -11.375 2.640625 -9.953125 L 2.640625 -7.1875 C 2.640625 -5.84375 3.15625 -4.578125 4.203125 -3.65625 L 6.546875 -1.546875 C 7.609375 -0.625 8.859375 0 10.296875 0 Z M 11.890625 -16.796875 C 11.21875 -16.796875 10.703125 -16.921875 10.125 -17.4375 L 8.78125 -18.640625 C 8.109375 -19.234375 7.9375 -19.859375 7.9375 -20.65625 L 7.9375 -21.921875 C 7.9375 -22.6875 8.140625 -23.359375 8.78125 -23.890625 L 10.203125 -25.078125 C 10.796875 -25.5 11.34375 -25.75 12.015625 -25.75 L 16.21875 -25.75 C 16.890625 -25.75 17.4375 -25.5 18.015625 -25.078125 L 19.453125 -23.9375 C 20.078125 -23.390625 20.328125 -22.6875 20.328125 -21.921875 L 20.328125 -20.65625 C 20.328125 -19.859375 20.15625 -19.1875 19.484375 -18.640625 L 18.0625 -17.390625 C 17.515625 -16.921875 17.015625 -16.796875 16.375 -16.796875 Z M 11.34375 -3.984375 C 10.703125 -3.984375 10.078125 -4.203125 9.65625 -4.53125 L 8.40625 -5.421875 C 7.609375 -6 7.0625 -6.84375 7.0625 -7.859375 L 7.0625 -9.453125 C 7.0625 -10.421875 7.46875 -11.21875 8.28125 -11.796875 L 9.40625 -12.765625 C 9.953125 -13.234375 10.578125 -13.390625 11.25 -13.390625 L 17.015625 -13.390625 C 17.640625 -13.390625 18.265625 -13.234375 18.78125 -12.765625 L 19.953125 -11.84375 C 20.75 -11.25 21.203125 -10.421875 21.203125 -9.453125 L 21.203125 -7.859375 C 21.203125 -6.84375 20.625 -6 19.828125 -5.421875 L 18.5625 -4.53125 C 18.140625 -4.203125 17.515625 -3.984375 16.890625 -3.984375 Z M 11.34375 -3.984375 "/></g></g></g><path stroke-linecap="butt" transform="matrix(-0.327369, 0.674781, -0.674781, -0.327369, 538.27164, 133.029945)" fill="none" stroke-linejoin="miter" d="M 0.00019474 0.998724 L 388.609999 0.9989 " stroke="#d9d9d9" stroke-width="2" stroke-opacity="1" stroke-miterlimit="4"/><g fill="#ffffff" fill-opacity="1"><g transform="translate(481.073955, 95.699986)"><g><path d="M 3.109375 0 L 23.734375 0 L 24.359375 -4.578125 L 20.40625 -3.734375 L 7.984375 -3.734375 C 7.984375 -5.671875 8.0625 -5.84375 9.03125 -6.71875 L 21.046875 -16.421875 C 22.265625 -17.390625 23.265625 -18.609375 23.265625 -20.203125 L 23.265625 -22.296875 C 23.265625 -23.484375 22.765625 -24.984375 21.875 -25.78125 L 19.40625 -28.015625 C 18.484375 -28.859375 17.34375 -29.40625 16.046875 -29.40625 L 4.40625 -29.40625 L 3.484375 -24.828125 L 7.140625 -25.65625 L 14.828125 -25.65625 C 15.453125 -25.65625 15.953125 -25.40625 16.546875 -24.984375 L 17.9375 -23.890625 C 18.609375 -23.4375 18.8125 -22.71875 18.8125 -22.015625 L 18.8125 -21.125 C 18.8125 -20.375 18.609375 -19.609375 17.765625 -18.9375 L 5.546875 -8.859375 C 3.78125 -7.46875 3.109375 -6.296875 3.109375 -3.703125 Z M 3.109375 0 "/></g></g></g><g fill="#ffffff" fill-opacity="1"><g transform="translate(507.610491, 95.699986)"><g><path d="M 11.671875 0 L 18.3125 0 C 19.734375 0 21.046875 -0.546875 22.046875 -1.546875 L 24.953125 -4.453125 C 25.953125 -5.453125 26.5 -6.765625 26.5 -8.1875 L 26.5 -21.203125 C 26.5 -22.640625 25.953125 -23.9375 24.953125 -24.953125 L 22.046875 -27.84375 C 21.046875 -28.859375 19.734375 -29.40625 18.3125 -29.40625 L 11.671875 -29.40625 C 10.25 -29.40625 8.953125 -28.859375 7.9375 -27.84375 L 5.046875 -24.953125 C 4.03125 -23.9375 3.484375 -22.640625 3.484375 -21.203125 L 3.484375 -8.1875 C 3.484375 -6.765625 4.03125 -5.453125 5.046875 -4.453125 L 7.9375 -1.546875 C 8.953125 -0.546875 10.25 0 11.671875 0 Z M 12.515625 -3.78125 C 11.890625 -3.78125 11.421875 -3.953125 10.921875 -4.5 L 8.53125 -6.890625 C 8.109375 -7.3125 7.859375 -7.9375 7.859375 -8.609375 L 7.859375 -20.796875 C 7.859375 -21.46875 8.109375 -22.09375 8.53125 -22.515625 L 10.921875 -24.90625 C 11.421875 -25.453125 11.890625 -25.625 12.515625 -25.625 L 17.46875 -25.625 C 18.109375 -25.625 18.5625 -25.453125 19.109375 -24.90625 L 21.5 -22.515625 C 21.875 -22.09375 22.140625 -21.46875 22.140625 -20.796875 L 22.140625 -8.609375 C 22.140625 -7.9375 21.875 -7.3125 21.5 -6.890625 L 19.109375 -4.5 C 18.5625 -3.953125 18.109375 -3.78125 17.46875 -3.78125 Z M 12.515625 -3.78125 "/></g></g></g><path stroke-linecap="butt" transform="matrix(-0.51879, 0.541624, -0.541624, -0.51879, 616.416644, 186.276865)" fill="none" stroke-linejoin="miter" d="M -0.000233211 1.000262 L 389.934408 0.997658 " stroke="#d9d9d9" stroke-width="2" stroke-opacity="1" stroke-miterlimit="4"/><path stroke-linecap="butt" transform="matrix(-0.659307, 0.357512, -0.357512, -0.659307, 673.393962, 261.175202)" fill="none" stroke-linejoin="miter" d="M 0.00134459 1.001139 L 392.233165 1.002469 " stroke="#d9d9d9" stroke-width="2" stroke-opacity="1" stroke-miterlimit="4"/><path stroke-linecap="butt" transform="matrix(-0.737793, 0.134766, -0.134766, -0.737793, 706.016752, 350.967043)" fill="none" stroke-linejoin="miter" d="M -0.000791844 0.998204 L 394.164116 1.001911 " stroke="#d9d9d9" stroke-width="2" stroke-opacity="1" stroke-miterlimit="4"/><path stroke-linecap="butt" transform="matrix(-0.739435, -0.125443, 0.125443, -0.739435, 704.267368, 455.639973)" fill="none" stroke-linejoin="miter" d="M -0.00266418 0.99801 L 390.112655 0.998464 " stroke="#d9d9d9" stroke-width="2" stroke-opacity="1" stroke-miterlimit="4"/><path stroke-linecap="butt" transform="matrix(0.676098, -0.32464, 0.32464, 0.676098, 130.751555, 536.863169)" fill="none" stroke-linejoin="miter" d="M 0.00243735 1.000868 L 391.513431 0.99883 " stroke="#d9d9d9" stroke-width="2" stroke-opacity="1" stroke-miterlimit="4"/><path stroke-linecap="butt" transform="matrix(0.541152, -0.519282, 0.519282, 0.541152, 184.787147, 615.863725)" fill="none" stroke-linejoin="miter" d="M -0.00294296 0.999713 L 391.600242 1.001659 " stroke="#d9d9d9" stroke-width="2" stroke-opacity="1" stroke-miterlimit="4"/><path stroke-linecap="butt" transform="matrix(0.350904, -0.662847, 0.662847, 0.350904, 262.302559, 673.215682)" fill="none" stroke-linejoin="miter" d="M -0.000139118 0.999225 L 389.961278 1.00054 " stroke="#d9d9d9" stroke-width="2" stroke-opacity="1" stroke-miterlimit="4"/><path stroke-linecap="butt" transform="matrix(0.131372, -0.738405, 0.738405, 0.131372, 350.471266, 703.617177)" fill="none" stroke-linejoin="miter" d="M -0.00160997 1.002002 L 389.773932 0.998894 " stroke="#d9d9d9" stroke-width="2" stroke-opacity="1" stroke-miterlimit="4"/><path stroke-linecap="butt" transform="matrix(-0.111869, -0.74161, 0.74161, -0.111869, 448.505741, 705.110601)" fill="none" stroke-linejoin="miter" d="M -0.00142249 0.99809 L 389.411994 0.999202 " stroke="#d9d9d9" stroke-width="2" stroke-opacity="1" stroke-miterlimit="4"/><path stroke-linecap="butt" transform="matrix(-0.323443, -0.676672, 0.676672, -0.323443, 535.717945, 680.269546)" fill="none" stroke-linejoin="miter" d="M 0.00100025 1.000352 L 390.377556 0.998507 " stroke="#d9d9d9" stroke-width="2" stroke-opacity="1" stroke-miterlimit="4"/><path stroke-linecap="butt" transform="matrix(-0.515789, -0.544483, 0.544483, -0.515789, 612.966645, 626.675964)" fill="none" stroke-linejoin="miter" d="M -0.000522633 1.00059 L 390.351091 0.998849 " stroke="#d9d9d9" stroke-width="2" stroke-opacity="1" stroke-miterlimit="4"/><path stroke-linecap="butt" transform="matrix(-0.664585, -0.347601, 0.347601, -0.664585, 674.444922, 548.988328)" fill="none" stroke-linejoin="miter" d="M -0.00082169 0.999714 L 392.091549 1.001878 " stroke="#d9d9d9" stroke-width="2" stroke-opacity="1" stroke-miterlimit="4"/><g fill="#ffffff" fill-opacity="1"><g transform="translate(589.659118, 136.526372)"><g><path d="M 13.234375 -3.734375 L 13.234375 -29.40625 L 3.734375 -29.40625 L 2.765625 -25.53125 L 8.859375 -25.53125 L 8.859375 -3.734375 L 2.1875 -3.734375 L 2.1875 0 L 19.53125 0 L 19.53125 -3.734375 Z M 13.234375 -3.734375 "/></g></g></g><g fill="#ffffff" fill-opacity="1"><g transform="translate(189.257236, 685.789209)"><g><path d="M 3.109375 0 L 23.734375 0 L 24.359375 -4.578125 L 20.40625 -3.734375 L 7.984375 -3.734375 C 7.984375 -5.671875 8.0625 -5.84375 9.03125 -6.71875 L 21.046875 -16.421875 C 22.265625 -17.390625 23.265625 -18.609375 23.265625 -20.203125 L 23.265625 -22.296875 C 23.265625 -23.484375 22.765625 -24.984375 21.875 -25.78125 L 19.40625 -28.015625 C 18.484375 -28.859375 17.34375 -29.40625 16.046875 -29.40625 L 4.40625 -29.40625 L 3.484375 -24.828125 L 7.140625 -25.65625 L 14.828125 -25.65625 C 15.453125 -25.65625 15.953125 -25.40625 16.546875 -24.984375 L 17.9375 -23.890625 C 18.609375 -23.4375 18.8125 -22.71875 18.8125 -22.015625 L 18.8125 -21.125 C 18.8125 -20.375 18.609375 -19.609375 17.765625 -18.9375 L 5.546875 -8.859375 C 3.78125 -7.46875 3.109375 -6.296875 3.109375 -3.703125 Z M 3.109375 0 "/></g></g></g><g fill="#ffffff" fill-opacity="1"><g transform="translate(65.454389, 520.070154)"><g><path d="M 3.53125 0 L 15.796875 0 C 17.21875 0 18.484375 -0.625 19.53125 -1.546875 L 21.875 -3.65625 C 22.9375 -4.578125 23.4375 -5.84375 23.4375 -7.1875 L 23.4375 -9.953125 C 23.4375 -11.375 22.96875 -12.515625 21.875 -13.359375 L 19.359375 -15.40625 L 20.875 -16.796875 C 21.796875 -17.6875 22.46875 -18.6875 22.46875 -19.984375 L 22.46875 -22.421875 C 22.46875 -23.515625 22.015625 -25.15625 21.125 -25.90625 L 18.734375 -28.0625 C 17.8125 -28.890625 16.765625 -29.40625 15.5 -29.40625 L 4.234375 -29.40625 L 3.3125 -24.859375 L 6.796875 -25.703125 L 13.9375 -25.703125 C 14.65625 -25.703125 15.203125 -25.5 15.796875 -25.03125 L 17.21875 -23.890625 C 17.84375 -23.359375 18.109375 -22.640625 18.109375 -21.875 L 18.109375 -20.75 C 18.109375 -19.984375 17.9375 -19.3125 17.265625 -18.734375 L 15.921875 -17.515625 C 15.328125 -16.96875 14.78125 -16.84375 14.109375 -16.84375 L 5.296875 -16.84375 L 5.296875 -13.3125 L 14.828125 -13.3125 C 15.453125 -13.3125 16.09375 -13.140625 16.625 -12.6875 L 17.765625 -11.71875 C 18.5625 -11.125 19.03125 -10.328125 19.03125 -9.359375 L 19.03125 -7.859375 C 19.03125 -6.890625 18.4375 -6.09375 17.6875 -5.5 L 16.421875 -4.578125 C 16 -4.234375 15.375 -3.984375 14.703125 -3.984375 L 6.046875 -3.984375 L 2.640625 -4.828125 Z M 3.53125 0 "/></g></g></g><g fill="#ffffff" fill-opacity="1"><g transform="translate(386.582914, 756.411894)"><g><path d="M 10.5 0 L 18.140625 0 C 19.3125 0 20.453125 -0.375 21.203125 -1.171875 L 23.890625 -3.90625 C 24.703125 -4.703125 25.15625 -5.625 25.15625 -6.71875 L 25.15625 -12.59375 C 25.15625 -13.6875 24.65625 -14.609375 23.8125 -15.40625 L 21.375 -17.8125 C 20.578125 -18.515625 19.3125 -18.9375 18.234375 -18.9375 L 12.265625 -18.9375 C 10.96875 -18.9375 9.703125 -18.015625 8.53125 -16.921875 L 9.28125 -25.703125 L 23.1875 -25.703125 L 23.1875 -30.03125 L 19.0625 -29.40625 L 5.546875 -29.40625 L 3.984375 -12.8125 L 8.140625 -12.140625 C 8.1875 -12.515625 8.4375 -13.015625 8.953125 -13.4375 L 10.375 -14.65625 C 10.875 -15.078125 11.71875 -15.28125 12.390625 -15.28125 L 16.765625 -15.28125 C 17.296875 -15.28125 18.015625 -15.203125 18.390625 -14.78125 L 20.078125 -13.015625 C 20.53125 -12.515625 20.828125 -12.09375 20.828125 -11.671875 L 20.828125 -7.515625 C 20.828125 -7.140625 20.53125 -6.640625 20.078125 -6.171875 L 18.4375 -4.40625 C 18.109375 -3.984375 17.4375 -3.859375 16.765625 -3.859375 L 11.890625 -3.859375 C 11.21875 -3.859375 10.578125 -4.078125 10.296875 -4.375 L 8.609375 -6.171875 C 8.140625 -6.59375 7.859375 -7.140625 7.859375 -7.5625 L 3.53125 -6.71875 C 3.53125 -5.71875 3.953125 -4.65625 4.78125 -3.90625 L 7.4375 -1.171875 C 8.28125 -0.421875 9.328125 0 10.5 0 Z M 10.5 0 "/></g></g></g><g fill="#ffffff" fill-opacity="1"><g transform="translate(712.042648, 305.638541)"><g><path d="M 23.765625 -15.078125 L 21.34375 -17.46875 C 20.578125 -18.234375 19.3125 -18.609375 18.234375 -18.609375 L 12.140625 -18.609375 C 10.15625 -18.609375 8.90625 -17.4375 7.734375 -15.953125 L 7.734375 -21.171875 C 7.734375 -22.296875 7.859375 -22.9375 8.1875 -23.359375 L 9.90625 -25.28125 C 10.203125 -25.625 10.921875 -25.703125 11.46875 -25.703125 L 19.15625 -25.703125 L 23.359375 -23.4375 L 23.359375 -26.921875 C 23.1875 -27.390625 22.6875 -27.71875 22.296875 -27.96875 L 20.703125 -29.015625 C 20.203125 -29.3125 19.578125 -29.40625 19.03125 -29.40625 L 10.546875 -29.40625 C 9.109375 -29.40625 8.109375 -29.1875 7.390625 -28.4375 L 4.375 -25.109375 C 3.609375 -24.3125 3.484375 -22.96875 3.484375 -20.703125 L 3.484375 -6.71875 C 3.484375 -5.671875 3.90625 -4.65625 4.75 -3.90625 L 7.390625 -1.171875 C 8.234375 -0.421875 9.28125 0 10.453125 0 L 18.015625 0 C 19.234375 0 20.328125 -0.375 21.078125 -1.171875 L 23.765625 -3.90625 C 24.5625 -4.703125 25.03125 -5.625 25.03125 -6.71875 L 25.03125 -12.265625 C 25.03125 -13.359375 24.609375 -14.28125 23.765625 -15.078125 Z M 20.703125 -7.5625 C 20.703125 -7.140625 20.40625 -6.671875 19.984375 -6.21875 L 18.359375 -4.40625 C 18.015625 -3.984375 17.296875 -3.859375 16.625 -3.859375 L 11.84375 -3.859375 C 11.171875 -3.859375 10.5 -4.078125 10.15625 -4.375 L 8.53125 -6.171875 C 8.0625 -6.59375 7.8125 -7.140625 7.8125 -7.5625 L 7.8125 -11.671875 C 7.8125 -12.046875 8.28125 -12.640625 8.78125 -13.0625 L 10.25 -14.359375 C 10.703125 -14.828125 11.59375 -15 12.3125 -15 L 16.625 -15 C 17.171875 -15 17.9375 -14.90625 18.3125 -14.484375 L 19.90625 -12.765625 C 20.40625 -12.265625 20.703125 -11.84375 20.703125 -11.375 Z M 20.703125 -7.5625 "/></g></g></g><g fill="#ffffff" fill-opacity="1"><g transform="translate(710.761072, 524.097594)"><g><path d="M 10.296875 0 L 17.9375 0 C 19.359375 0 20.625 -0.625 21.671875 -1.546875 L 24.03125 -3.65625 C 25.078125 -4.578125 25.578125 -5.84375 25.578125 -7.1875 L 25.578125 -9.953125 C 25.578125 -11.375 25.15625 -12.515625 24.03125 -13.359375 L 21.5 -15.40625 L 23.0625 -16.796875 C 23.9375 -17.6875 24.65625 -18.6875 24.65625 -19.984375 L 24.65625 -22.421875 C 24.65625 -23.515625 24.15625 -25.15625 23.3125 -25.90625 L 20.875 -28.0625 C 19.953125 -28.890625 18.90625 -29.40625 17.640625 -29.40625 L 10.578125 -29.40625 C 9.328125 -29.40625 8.28125 -28.890625 7.34375 -28.0625 L 4.953125 -25.90625 C 4.078125 -25.15625 3.609375 -23.515625 3.609375 -22.421875 L 3.609375 -19.984375 C 3.609375 -18.6875 4.28125 -17.6875 5.203125 -16.796875 L 6.71875 -15.40625 L 4.203125 -13.359375 C 3.109375 -12.515625 2.640625 -11.375 2.640625 -9.953125 L 2.640625 -7.1875 C 2.640625 -5.84375 3.15625 -4.578125 4.203125 -3.65625 L 6.546875 -1.546875 C 7.609375 -0.625 8.859375 0 10.296875 0 Z M 11.890625 -16.796875 C 11.21875 -16.796875 10.703125 -16.921875 10.125 -17.4375 L 8.78125 -18.640625 C 8.109375 -19.234375 7.9375 -19.859375 7.9375 -20.65625 L 7.9375 -21.921875 C 7.9375 -22.6875 8.140625 -23.359375 8.78125 -23.890625 L 10.203125 -25.078125 C 10.796875 -25.5 11.34375 -25.75 12.015625 -25.75 L 16.21875 -25.75 C 16.890625 -25.75 17.4375 -25.5 18.015625 -25.078125 L 19.453125 -23.9375 C 20.078125 -23.390625 20.328125 -22.6875 20.328125 -21.921875 L 20.328125 -20.65625 C 20.328125 -19.859375 20.15625 -19.1875 19.484375 -18.640625 L 18.0625 -17.390625 C 17.515625 -16.921875 17.015625 -16.796875 16.375 -16.796875 Z M 11.34375 -3.984375 C 10.703125 -3.984375 10.078125 -4.203125 9.65625 -4.53125 L 8.40625 -5.421875 C 7.609375 -6 7.0625 -6.84375 7.0625 -7.859375 L 7.0625 -9.453125 C 7.0625 -10.421875 7.46875 -11.21875 8.28125 -11.796875 L 9.40625 -12.765625 C 9.953125 -13.234375 10.578125 -13.390625 11.25 -13.390625 L 17.015625 -13.390625 C 17.640625 -13.390625 18.265625 -13.234375 18.78125 -12.765625 L 19.953125 -11.84375 C 20.75 -11.25 21.203125 -10.421875 21.203125 -9.453125 L 21.203125 -7.859375 C 21.203125 -6.84375 20.625 -6 19.828125 -5.421875 L 18.5625 -4.53125 C 18.140625 -4.203125 17.515625 -3.984375 16.890625 -3.984375 Z M 11.34375 -3.984375 "/></g></g></g><g fill="#ffffff" fill-opacity="1"><g transform="translate(584.213638, 693.874617)"><g><path d="M 4.75 -14.328125 L 7.1875 -11.921875 C 7.9375 -11.171875 9.203125 -10.796875 10.296875 -10.796875 L 16.375 -10.796875 C 18.359375 -10.796875 19.609375 -11.96875 20.796875 -13.4375 L 20.796875 -8.234375 C 20.796875 -7.09375 20.65625 -6.46875 20.328125 -6.046875 L 18.609375 -4.109375 C 18.3125 -3.78125 17.59375 -3.703125 17.046875 -3.703125 L 8.40625 -3.703125 L 4.203125 -5.96875 L 4.203125 -2.484375 C 4.375 -2.015625 4.828125 -1.6875 5.25 -1.421875 L 6.84375 -0.375 C 7.3125 -0.078125 7.984375 0 8.484375 0 L 17.96875 0 C 19.40625 0 20.40625 -0.203125 21.125 -0.96875 L 24.15625 -4.28125 C 24.90625 -5.078125 25.03125 -6.421875 25.03125 -8.6875 L 25.03125 -22.6875 C 25.03125 -23.734375 24.609375 -24.703125 23.8125 -25.5 L 21.171875 -28.21875 C 20.375 -29.015625 19.234375 -29.40625 18.0625 -29.40625 L 10.5 -29.40625 C 9.28125 -29.40625 8.1875 -29.015625 7.4375 -28.21875 L 4.75 -25.5 C 3.953125 -24.703125 3.484375 -23.765625 3.484375 -22.6875 L 3.484375 -17.140625 C 3.484375 -16.046875 3.90625 -15.125 4.75 -14.328125 Z M 7.8125 -21.796875 C 7.8125 -22.21875 8.109375 -22.6875 8.53125 -23.1875 L 10.15625 -24.984375 C 10.5 -25.40625 11.21875 -25.53125 11.890625 -25.53125 L 16.671875 -25.53125 C 17.34375 -25.53125 18.109375 -25.375 18.390625 -25.03125 L 20.03125 -23.1875 C 20.453125 -22.765625 20.703125 -22.21875 20.703125 -21.796875 L 20.703125 -17.71875 C 20.703125 -17.34375 20.25 -16.765625 19.734375 -16.34375 L 18.265625 -15.03125 C 17.8125 -14.578125 16.921875 -14.40625 16.21875 -14.40625 L 11.890625 -14.40625 C 11.34375 -14.40625 10.578125 -14.484375 10.203125 -14.90625 L 8.609375 -16.625 C 8.109375 -17.140625 7.8125 -17.5625 7.8125 -18.015625 Z M 7.8125 -21.796875 "/></g></g></g><g fill="#ffffff" fill-opacity="1"><g transform="translate(652.623907, 622.000597)"><g><path d="M 13.234375 -3.734375 L 13.234375 -29.40625 L 3.734375 -29.40625 L 2.765625 -25.53125 L 8.859375 -25.53125 L 8.859375 -3.734375 L 2.1875 -3.734375 L 2.1875 0 L 19.53125 0 L 19.53125 -3.734375 Z M 13.234375 -3.734375 "/></g></g></g><g fill="#ffffff" fill-opacity="1"><g transform="translate(673.156128, 622.000597)"><g><path d="M 3.109375 0 L 23.734375 0 L 24.359375 -4.578125 L 20.40625 -3.734375 L 7.984375 -3.734375 C 7.984375 -5.671875 8.0625 -5.84375 9.03125 -6.71875 L 21.046875 -16.421875 C 22.265625 -17.390625 23.265625 -18.609375 23.265625 -20.203125 L 23.265625 -22.296875 C 23.265625 -23.484375 22.765625 -24.984375 21.875 -25.78125 L 19.40625 -28.015625 C 18.484375 -28.859375 17.34375 -29.40625 16.046875 -29.40625 L 4.40625 -29.40625 L 3.484375 -24.828125 L 7.140625 -25.65625 L 14.828125 -25.65625 C 15.453125 -25.65625 15.953125 -25.40625 16.546875 -24.984375 L 17.9375 -23.890625 C 18.609375 -23.4375 18.8125 -22.71875 18.8125 -22.015625 L 18.8125 -21.125 C 18.8125 -20.375 18.609375 -19.609375 17.765625 -18.9375 L 5.546875 -8.859375 C 3.78125 -7.46875 3.109375 -6.296875 3.109375 -3.703125 Z M 3.109375 0 "/></g></g></g><g fill="#ffffff" fill-opacity="1"><g transform="translate(484.054851, 741.335839)"><g><path d="M 13.234375 -3.734375 L 13.234375 -29.40625 L 3.734375 -29.40625 L 2.765625 -25.53125 L 8.859375 -25.53125 L 8.859375 -3.734375 L 2.1875 -3.734375 L 2.1875 0 L 19.53125 0 L 19.53125 -3.734375 Z M 13.234375 -3.734375 "/></g></g></g><g fill="#ffffff" fill-opacity="1"><g transform="translate(504.587073, 741.335839)"><g><path d="M 25.578125 -7.3125 L 26.328125 -10.875 L 21.75 -10.875 L 21.75 -29.40625 L 17.8125 -29.40625 L 1.34375 -10.875 L 2.1875 -7.3125 L 17.46875 -7.3125 L 17.46875 -3.359375 L 16.59375 0 L 22.515625 0 L 21.75 -3.359375 L 21.75 -7.3125 Z M 5.875 -10.875 L 17.46875 -24.234375 L 17.46875 -10.875 Z M 5.875 -10.875 "/></g></g></g><g fill="#ffffff" fill-opacity="1"><g transform="translate(101.674239, 606.702997)"><g><path d="M 13.234375 -3.734375 L 13.234375 -29.40625 L 3.734375 -29.40625 L 2.765625 -25.53125 L 8.859375 -25.53125 L 8.859375 -3.734375 L 2.1875 -3.734375 L 2.1875 0 L 19.53125 0 L 19.53125 -3.734375 Z M 13.234375 -3.734375 "/></g></g></g><g fill="#ffffff" fill-opacity="1"><g transform="translate(122.206461, 606.702997)"><g><path d="M 10.5 0 L 18.140625 0 C 19.3125 0 20.453125 -0.375 21.203125 -1.171875 L 23.890625 -3.90625 C 24.703125 -4.703125 25.15625 -5.625 25.15625 -6.71875 L 25.15625 -12.59375 C 25.15625 -13.6875 24.65625 -14.609375 23.8125 -15.40625 L 21.375 -17.8125 C 20.578125 -18.515625 19.3125 -18.9375 18.234375 -18.9375 L 12.265625 -18.9375 C 10.96875 -18.9375 9.703125 -18.015625 8.53125 -16.921875 L 9.28125 -25.703125 L 23.1875 -25.703125 L 23.1875 -30.03125 L 19.0625 -29.40625 L 5.546875 -29.40625 L 3.984375 -12.8125 L 8.140625 -12.140625 C 8.1875 -12.515625 8.4375 -13.015625 8.953125 -13.4375 L 10.375 -14.65625 C 10.875 -15.078125 11.71875 -15.28125 12.390625 -15.28125 L 16.765625 -15.28125 C 17.296875 -15.28125 18.015625 -15.203125 18.390625 -14.78125 L 20.078125 -13.015625 C 20.53125 -12.515625 20.828125 -12.09375 20.828125 -11.671875 L 20.828125 -7.515625 C 20.828125 -7.140625 20.53125 -6.640625 20.078125 -6.171875 L 18.4375 -4.40625 C 18.109375 -3.984375 17.4375 -3.859375 16.765625 -3.859375 L 11.890625 -3.859375 C 11.21875 -3.859375 10.578125 -4.078125 10.296875 -4.375 L 8.609375 -6.171875 C 8.140625 -6.59375 7.859375 -7.140625 7.859375 -7.5625 L 3.53125 -6.71875 C 3.53125 -5.71875 3.953125 -4.65625 4.78125 -3.90625 L 7.4375 -1.171875 C 8.28125 -0.421875 9.328125 0 10.5 0 Z M 10.5 0 "/></g></g></g><g fill="#ffffff" fill-opacity="1"><g transform="translate(651.775579, 208.717481)"><g><path d="M 13.234375 -3.734375 L 13.234375 -29.40625 L 3.734375 -29.40625 L 2.765625 -25.53125 L 8.859375 -25.53125 L 8.859375 -3.734375 L 2.1875 -3.734375 L 2.1875 0 L 19.53125 0 L 19.53125 -3.734375 Z M 13.234375 -3.734375 "/></g></g></g><g fill="#ffffff" fill-opacity="1"><g transform="translate(672.3078, 208.717481)"><g><path d="M 23.765625 -15.078125 L 21.34375 -17.46875 C 20.578125 -18.234375 19.3125 -18.609375 18.234375 -18.609375 L 12.140625 -18.609375 C 10.15625 -18.609375 8.90625 -17.4375 7.734375 -15.953125 L 7.734375 -21.171875 C 7.734375 -22.296875 7.859375 -22.9375 8.1875 -23.359375 L 9.90625 -25.28125 C 10.203125 -25.625 10.921875 -25.703125 11.46875 -25.703125 L 19.15625 -25.703125 L 23.359375 -23.4375 L 23.359375 -26.921875 C 23.1875 -27.390625 22.6875 -27.71875 22.296875 -27.96875 L 20.703125 -29.015625 C 20.203125 -29.3125 19.578125 -29.40625 19.03125 -29.40625 L 10.546875 -29.40625 C 9.109375 -29.40625 8.109375 -29.1875 7.390625 -28.4375 L 4.375 -25.109375 C 3.609375 -24.3125 3.484375 -22.96875 3.484375 -20.703125 L 3.484375 -6.71875 C 3.484375 -5.671875 3.90625 -4.65625 4.75 -3.90625 L 7.390625 -1.171875 C 8.234375 -0.421875 9.28125 0 10.453125 0 L 18.015625 0 C 19.234375 0 20.328125 -0.375 21.078125 -1.171875 L 23.765625 -3.90625 C 24.5625 -4.703125 25.03125 -5.625 25.03125 -6.71875 L 25.03125 -12.265625 C 25.03125 -13.359375 24.609375 -14.28125 23.765625 -15.078125 Z M 20.703125 -7.5625 C 20.703125 -7.140625 20.40625 -6.671875 19.984375 -6.21875 L 18.359375 -4.40625 C 18.015625 -3.984375 17.296875 -3.859375 16.625 -3.859375 L 11.84375 -3.859375 C 11.171875 -3.859375 10.5 -4.078125 10.15625 -4.375 L 8.53125 -6.171875 C 8.0625 -6.59375 7.8125 -7.140625 7.8125 -7.5625 L 7.8125 -11.671875 C 7.8125 -12.046875 8.28125 -12.640625 8.78125 -13.0625 L 10.25 -14.359375 C 10.703125 -14.828125 11.59375 -15 12.3125 -15 L 16.625 -15 C 17.171875 -15 17.9375 -14.90625 18.3125 -14.484375 L 19.90625 -12.765625 C 20.40625 -12.265625 20.703125 -11.84375 20.703125 -11.375 Z M 20.703125 -7.5625 "/></g></g></g><g fill="#ffffff" fill-opacity="1"><g transform="translate(721.949391, 417.205547)"><g><path d="M 13.234375 -3.734375 L 13.234375 -29.40625 L 3.734375 -29.40625 L 2.765625 -25.53125 L 8.859375 -25.53125 L 8.859375 -3.734375 L 2.1875 -3.734375 L 2.1875 0 L 19.53125 0 L 19.53125 -3.734375 Z M 13.234375 -3.734375 "/></g></g></g><g fill="#ffffff" fill-opacity="1"><g transform="translate(742.481613, 417.205547)"><g><path d="M 9.234375 0 L 13.609375 0 L 13.609375 -6.296875 L 23.1875 -27.34375 L 22.640625 -29.40625 L 2.8125 -29.40625 L 2.1875 -24.703125 L 5.546875 -25.53125 L 18.1875 -25.53125 L 9.234375 -6.46875 Z M 9.234375 0 "/></g></g></g><g fill="#ffffff" fill-opacity="1"><g transform="translate(267.632275, 740.067175)"><g><path d="M 13.234375 -3.734375 L 13.234375 -29.40625 L 3.734375 -29.40625 L 2.765625 -25.53125 L 8.859375 -25.53125 L 8.859375 -3.734375 L 2.1875 -3.734375 L 2.1875 0 L 19.53125 0 L 19.53125 -3.734375 Z M 13.234375 -3.734375 "/></g></g></g><g fill="#ffffff" fill-opacity="1"><g transform="translate(288.164497, 740.067175)"><g><path d="M 4.75 -14.328125 L 7.1875 -11.921875 C 7.9375 -11.171875 9.203125 -10.796875 10.296875 -10.796875 L 16.375 -10.796875 C 18.359375 -10.796875 19.609375 -11.96875 20.796875 -13.4375 L 20.796875 -8.234375 C 20.796875 -7.09375 20.65625 -6.46875 20.328125 -6.046875 L 18.609375 -4.109375 C 18.3125 -3.78125 17.59375 -3.703125 17.046875 -3.703125 L 8.40625 -3.703125 L 4.203125 -5.96875 L 4.203125 -2.484375 C 4.375 -2.015625 4.828125 -1.6875 5.25 -1.421875 L 6.84375 -0.375 C 7.3125 -0.078125 7.984375 0 8.484375 0 L 17.96875 0 C 19.40625 0 20.40625 -0.203125 21.125 -0.96875 L 24.15625 -4.28125 C 24.90625 -5.078125 25.03125 -6.421875 25.03125 -8.6875 L 25.03125 -22.6875 C 25.03125 -23.734375 24.609375 -24.703125 23.8125 -25.5 L 21.171875 -28.21875 C 20.375 -29.015625 19.234375 -29.40625 18.0625 -29.40625 L 10.5 -29.40625 C 9.28125 -29.40625 8.1875 -29.015625 7.4375 -28.21875 L 4.75 -25.5 C 3.953125 -24.703125 3.484375 -23.765625 3.484375 -22.6875 L 3.484375 -17.140625 C 3.484375 -16.046875 3.90625 -15.125 4.75 -14.328125 Z M 7.8125 -21.796875 C 7.8125 -22.21875 8.109375 -22.6875 8.53125 -23.1875 L 10.15625 -24.984375 C 10.5 -25.40625 11.21875 -25.53125 11.890625 -25.53125 L 16.671875 -25.53125 C 17.34375 -25.53125 18.109375 -25.375 18.390625 -25.03125 L 20.03125 -23.1875 C 20.453125 -22.765625 20.703125 -22.21875 20.703125 -21.796875 L 20.703125 -17.71875 C 20.703125 -17.34375 20.25 -16.765625 19.734375 -16.34375 L 18.265625 -15.03125 C 17.8125 -14.578125 16.921875 -14.40625 16.21875 -14.40625 L 11.890625 -14.40625 C 11.34375 -14.40625 10.578125 -14.484375 10.203125 -14.90625 L 8.609375 -16.625 C 8.109375 -17.140625 7.8125 -17.5625 7.8125 -18.015625 Z M 7.8125 -21.796875 "/></g></g></g></svg>